<?xml version="1.0" encoding="utf-8"?>
<!-- Generator: Adobe Illustrator 27.1.1, SVG Export Plug-In . SVG Version: 6.00 Build 0)  -->
<svg version="1.1" id="Layer_1" xmlns="http://www.w3.org/2000/svg" xmlns:xlink="http://www.w3.org/1999/xlink" x="0px" y="0px"
	 viewBox="0 0 595 842" style="enable-background:new 0 0 595 842;" xml:space="preserve">
<style type="text/css">
	.st0{fill-rule:evenodd;clip-rule:evenodd;}
</style>
<path class="st0" d="M-10.09,419.72v420.46l-9.75,0.33l-9.75,0.33l10.25,0.21l10.25,0.21v-421c0-231.55-0.23-421-0.5-421
	S-10.09,188.46-10.09,419.72 M145.09,250.67c-7.33,2.86-13.34,5.54-13.37,5.95c-0.02,0.42,20.48,38.43,45.57,84.48l45.62,83.72
	v65.06v65.05l33.16,0.66c18.24,0.36,38.6,0.67,45.25,0.68l12.09,0.02l13.56-5.73l13.56-5.73l0.28-64.84l0.28-64.84l45.42-84.1
	c24.98-46.25,45.42-84.26,45.42-84.45c0-0.19-22.84-0.34-50.75-0.33l-50.75,0.02l-14.43,5.23l-14.43,5.23l-8.7,19.82l-8.7,19.82
	l-2.93-6.32c-1.61-3.48-6.73-14.97-11.38-25.54l-8.45-19.23l-51.5,0.09l-51.5,0.09L145.09,250.67 M198.66,246.99
	c-20.76,0.16-37.75,0.45-37.75,0.64c0,0.19,20.7,38.08,46,84.19l46,83.84v63.8v63.8h42.84h42.84l0.65-64.4l0.65-64.4l45-83.35
	l45-83.35l-48.68-0.26c-29.36-0.16-49.05,0.11-49.62,0.68c-0.52,0.52-8.64,17.68-18.06,38.13c-9.42,20.46-17.54,37.17-18.04,37.15
	c-0.51-0.03-8.62-17.3-18.03-38.38l-17.11-38.33l-11.97-0.03C241.8,246.71,219.43,246.83,198.66,246.99 M145.2,252.15l-12.21,4.68
	l46.07,84.46l46.07,84.46l-0.56,63.75c-0.31,35.06-0.39,63.75-0.19,63.75c0.2,0,6.25-2.08,13.45-4.62l13.08-4.62l-0.02-64.63
	l-0.02-64.63l-45.81-83.44c-25.2-45.89-46.23-83.53-46.73-83.64C157.83,247.56,151.92,249.58,145.2,252.15 M315.53,253.11
	l-12.89,4.64l-8.88,20.21l-8.88,20.21l5.16,11.59c2.84,6.37,5.5,11.23,5.91,10.79c1.12-1.2,33.21-71.39,32.8-71.76
	C328.57,248.62,322.61,250.56,315.53,253.11 M240.22,549.13c-5.61,2.02-10.45,3.93-10.76,4.24c-0.31,0.31,18.37,0.83,41.53,1.15
	l42.1,0.58l10.67-4.54c5.86-2.5,10.85-4.71,11.08-4.92c0.23-0.21-18.67-0.34-42-0.29l-42.42,0.1L240.22,549.13 M-35.32,840.96
	c1.24,0.24,3.04,0.23,4-0.02c0.96-0.25-0.06-0.45-2.26-0.43C-35.79,840.51-36.57,840.72-35.32,840.96"/>
</svg>
